<svg width="19" height="19" viewBox="0 0 19 19" fill="none" xmlns="http://www.w3.org/2000/svg">
<path d="M1.80952 12.6667V1.80952H0V0H2.71429C2.95424 0 3.18437 0.0953228 3.35405 0.264999C3.52372 0.434674 3.61905 0.664804 3.61905 0.904762V11.7619H14.8725L16.682 4.52381H5.42857V2.71429H17.8419C17.9794 2.71429 18.1152 2.74565 18.2387 2.80597C18.3623 2.8663 18.4706 2.954 18.5552 3.06243C18.6398 3.17085 18.6985 3.29713 18.727 3.43168C18.7555 3.56623 18.7529 3.7055 18.7195 3.8389L16.4576 12.8865C16.4086 13.0822 16.2956 13.2558 16.1366 13.3799C15.9776 13.504 15.7817 13.5714 15.58 13.5714H2.71429C2.47433 13.5714 2.2442 13.4761 2.07452 13.3064C1.90485 13.1368 1.80952 12.9066 1.80952 12.6667ZM3.61905 19C3.13913 19 2.67887 18.8094 2.33952 18.47C2.00017 18.1307 1.80952 17.6704 1.80952 17.1905C1.80952 16.7106 2.00017 16.2503 2.33952 15.9109C2.67887 15.5716 3.13913 15.381 3.61905 15.381C4.09896 15.381 4.55922 15.5716 4.89857 15.9109C5.23793 16.2503 5.42857 16.7106 5.42857 17.1905C5.42857 17.6704 5.23793 18.1307 4.89857 18.47C4.55922 18.8094 4.09896 19 3.61905 19ZM14.4762 19C13.9963 19 13.536 18.8094 13.1967 18.47C12.8573 18.1307 12.6667 17.6704 12.6667 17.1905C12.6667 16.7106 12.8573 16.2503 13.1967 15.9109C13.536 15.5716 13.9963 15.381 14.4762 15.381C14.9561 15.381 15.4164 15.5716 15.7557 15.9109C16.0951 16.2503 16.2857 16.7106 16.2857 17.1905C16.2857 17.6704 16.0951 18.1307 15.7557 18.47C15.4164 18.8094 14.9561 19 14.4762 19Z" fill="white"/>
</svg>
