<svg width="20" height="20" viewBox="0 0 20 20" fill="none" xmlns="http://www.w3.org/2000/svg">
<path d="M4.26316 8.52632C3.70331 8.52632 3.14895 8.41605 2.63172 8.2018C2.11449 7.98756 1.64452 7.67354 1.24865 7.27767C0.852779 6.88179 0.538757 6.41183 0.324513 5.8946C0.11027 5.37737 0 4.823 0 4.26316C0 3.70331 0.11027 3.14895 0.324513 2.63172C0.538757 2.11449 0.852779 1.64452 1.24865 1.24865C1.64452 0.852779 2.11449 0.538757 2.63172 0.324514C3.14895 0.11027 3.70331 -8.34235e-09 4.26316 0C5.39382 1.68481e-08 6.47817 0.449153 7.27767 1.24865C8.07716 2.04815 8.52632 3.1325 8.52632 4.26316C8.52632 5.39382 8.07716 6.47817 7.27767 7.27767C6.47817 8.07716 5.39382 8.52632 4.26316 8.52632ZM4.26316 20C3.1325 20 2.04815 19.5508 1.24865 18.7514C0.449153 17.9519 0 16.8675 0 15.7368C0 14.6062 0.449153 13.5218 1.24865 12.7223C2.04815 11.9228 3.1325 11.4737 4.26316 11.4737C5.39382 11.4737 6.47817 11.9228 7.27767 12.7223C8.07716 13.5218 8.52632 14.6062 8.52632 15.7368C8.52632 16.8675 8.07716 17.9519 7.27767 18.7514C6.47817 19.5508 5.39382 20 4.26316 20ZM15.7368 8.52632C15.177 8.52632 14.6226 8.41605 14.1054 8.2018C13.5882 7.98756 13.1182 7.67354 12.7223 7.27767C12.3265 6.88179 12.0124 6.41183 11.7982 5.8946C11.584 5.37737 11.4737 4.823 11.4737 4.26316C11.4737 3.70331 11.584 3.14895 11.7982 2.63172C12.0124 2.11449 12.3265 1.64452 12.7223 1.24865C13.1182 0.852779 13.5882 0.538757 14.1054 0.324514C14.6226 0.11027 15.177 -8.34235e-09 15.7368 0C16.8675 1.68481e-08 17.9519 0.449153 18.7514 1.24865C19.5508 2.04815 20 3.1325 20 4.26316C20 5.39382 19.5508 6.47817 18.7514 7.27767C17.9519 8.07716 16.8675 8.52632 15.7368 8.52632ZM15.7368 20C14.6062 20 13.5218 19.5508 12.7223 18.7514C11.9228 17.9519 11.4737 16.8675 11.4737 15.7368C11.4737 14.6062 11.9228 13.5218 12.7223 12.7223C13.5218 11.9228 14.6062 11.4737 15.7368 11.4737C16.8675 11.4737 17.9519 11.9228 18.7514 12.7223C19.5508 13.5218 20 14.6062 20 15.7368C20 16.8675 19.5508 17.9519 18.7514 18.7514C17.9519 19.5508 16.8675 20 15.7368 20Z" fill="white"/>
</svg>
