<svg width="19" height="19" viewBox="0 0 19 19" fill="none" xmlns="http://www.w3.org/2000/svg">
<path d="M8.70837 1.58325C12.6414 1.58325 15.8334 4.77525 15.8334 8.70825C15.8334 12.6413 12.6414 15.8333 8.70837 15.8333C4.77537 15.8333 1.58337 12.6413 1.58337 8.70825C1.58337 4.77525 4.77537 1.58325 8.70837 1.58325ZM8.70837 14.2499C11.7697 14.2499 14.25 11.7696 14.25 8.70825C14.25 5.64609 11.7697 3.16659 8.70837 3.16659C5.64621 3.16659 3.16671 5.64609 3.16671 8.70825C3.16671 11.7696 5.64621 14.2499 8.70837 14.2499ZM15.4257 14.3061L17.6653 16.545L16.5451 17.6652L14.3062 15.4255L15.4257 14.3061Z" fill="white"/>
</svg>
